<mxfile host="app.diagrams.net" modified="2020-10-09T01:44:21.154Z" agent="5.0 (Macintosh; Intel Mac OS X 10_15_6) AppleWebKit/537.36 (KHTML, like Gecko) Chrome/85.0.4183.83 Safari/537.36" etag="2nuR7FN-1ysv2lJsCd1f" version="13.7.9" type="github">
  <diagram id="DsH7vl033mQIY3K4GyW0" name="Page-1">
    <mxGraphModel dx="1426" dy="1841" grid="1" gridSize="10" guides="1" tooltips="1" connect="1" arrows="1" fold="1" page="1" pageScale="1" pageWidth="850" pageHeight="1100" math="0" shadow="0">
      <root>
        <mxCell id="0" />
        <mxCell id="1" parent="0" />
        <mxCell id="VUVvk97_Cy0lgHLT0rKq-1" value="" style="shape=cube;whiteSpace=wrap;html=1;boundedLbl=1;backgroundOutline=1;darkOpacity=0.05;darkOpacity2=0.1;" parent="1" vertex="1">
          <mxGeometry x="10" y="10" width="280" height="250" as="geometry" />
        </mxCell>
        <mxCell id="VUVvk97_Cy0lgHLT0rKq-4" value="&lt;span style=&quot;white-space: normal&quot;&gt;message_broadcaster.rb&lt;/span&gt;" style="shape=process;whiteSpace=wrap;html=1;backgroundOutline=1;" parent="1" vertex="1">
          <mxGeometry x="40" y="57" width="230" height="183" as="geometry" />
        </mxCell>
        <mxCell id="VUVvk97_Cy0lgHLT0rKq-10" value="" style="shape=cube;whiteSpace=wrap;html=1;boundedLbl=1;backgroundOutline=1;darkOpacity=0.05;darkOpacity2=0.1;" parent="1" vertex="1">
          <mxGeometry x="500" y="10" width="310" height="470" as="geometry" />
        </mxCell>
        <mxCell id="VUVvk97_Cy0lgHLT0rKq-5" value="USER_DEVICE_URL api/int/users/%s/devices" style="shape=process;whiteSpace=wrap;html=1;backgroundOutline=1;" parent="1" vertex="1">
          <mxGeometry x="560" y="181" width="210" height="40" as="geometry" />
        </mxCell>
        <mxCell id="VUVvk97_Cy0lgHLT0rKq-7" value="" style="endArrow=classic;startArrow=classic;html=1;entryX=1.006;entryY=0.798;entryDx=0;entryDy=0;exitX=0;exitY=0.5;exitDx=0;exitDy=0;entryPerimeter=0;" parent="1" source="VUVvk97_Cy0lgHLT0rKq-5" target="VUVvk97_Cy0lgHLT0rKq-4" edge="1">
          <mxGeometry width="50" height="50" relative="1" as="geometry">
            <mxPoint x="400" y="390" as="sourcePoint" />
            <mxPoint x="450" y="340" as="targetPoint" />
            <Array as="points" />
          </mxGeometry>
        </mxCell>
        <mxCell id="VUVvk97_Cy0lgHLT0rKq-12" value="get device_id" style="text;html=1;strokeColor=none;fillColor=none;align=center;verticalAlign=middle;whiteSpace=wrap;rounded=0;" parent="1" vertex="1">
          <mxGeometry x="350" y="180" width="100" height="20" as="geometry" />
        </mxCell>
        <mxCell id="VUVvk97_Cy0lgHLT0rKq-16" value="&lt;h1&gt;&lt;b&gt;WorkFeed&lt;/b&gt;&lt;/h1&gt;" style="text;html=1;" parent="1" vertex="1">
          <mxGeometry x="80" y="-30" width="220" height="50" as="geometry" />
        </mxCell>
        <mxCell id="VUVvk97_Cy0lgHLT0rKq-19" value="&lt;h1&gt;&lt;b&gt;Noti&lt;/b&gt;&lt;/h1&gt;" style="text;html=1;strokeColor=none;fillColor=none;align=center;verticalAlign=middle;whiteSpace=wrap;rounded=0;" parent="1" vertex="1">
          <mxGeometry x="595" y="-10" width="120" height="40" as="geometry" />
        </mxCell>
        <mxCell id="VUVvk97_Cy0lgHLT0rKq-21" value="Experiment" style="shape=cube;whiteSpace=wrap;html=1;boundedLbl=1;backgroundOutline=1;darkOpacity=0.05;darkOpacity2=0.1;" parent="1" vertex="1">
          <mxGeometry x="330.5" y="74" width="155" height="50" as="geometry" />
        </mxCell>
        <mxCell id="VUVvk97_Cy0lgHLT0rKq-23" value="" style="endArrow=classic;startArrow=classic;html=1;" parent="1" edge="1">
          <mxGeometry width="50" height="50" relative="1" as="geometry">
            <mxPoint x="270" y="97" as="sourcePoint" />
            <mxPoint x="341" y="97" as="targetPoint" />
          </mxGeometry>
        </mxCell>
        <mxCell id="VUVvk97_Cy0lgHLT0rKq-24" value="check" style="text;html=1;strokeColor=none;fillColor=none;align=center;verticalAlign=middle;whiteSpace=wrap;rounded=0;" parent="1" vertex="1">
          <mxGeometry x="291" y="71" width="40" height="20" as="geometry" />
        </mxCell>
        <mxCell id="VUVvk97_Cy0lgHLT0rKq-25" value="message.&lt;b&gt;mandatory_flag&lt;/b&gt; is TRUE" style="rounded=0;whiteSpace=wrap;html=1;" parent="1" vertex="1">
          <mxGeometry x="67.5" y="80" width="175" height="40" as="geometry" />
        </mxCell>
        <mxCell id="VUVvk97_Cy0lgHLT0rKq-31" value="" style="aspect=fixed;pointerEvents=1;shadow=0;dashed=0;html=1;strokeColor=none;labelPosition=center;verticalLabelPosition=bottom;verticalAlign=top;align=center;fillColor=#00188D;shape=mxgraph.azure.queue_generic;direction=west;" parent="1" vertex="1">
          <mxGeometry x="10" y="400" width="200" height="60" as="geometry" />
        </mxCell>
        <mxCell id="VUVvk97_Cy0lgHLT0rKq-32" value="Rabbit MessageQueue" style="rounded=1;whiteSpace=wrap;html=1;" parent="1" vertex="1">
          <mxGeometry x="64.5" y="327" width="190" height="40" as="geometry" />
        </mxCell>
        <mxCell id="VUVvk97_Cy0lgHLT0rKq-42" value="&lt;span style=&quot;text-align: left&quot;&gt;api/int/notify&lt;/span&gt;" style="shape=process;whiteSpace=wrap;html=1;backgroundOutline=1;" parent="1" vertex="1">
          <mxGeometry x="560" y="327" width="220" height="40" as="geometry" />
        </mxCell>
        <mxCell id="VUVvk97_Cy0lgHLT0rKq-43" value="ENQUEUE_NOTIFICATION_URL" style="text;html=1;" parent="1" vertex="1">
          <mxGeometry x="64.5" y="297" width="210" height="30" as="geometry" />
        </mxCell>
        <mxCell id="VUVvk97_Cy0lgHLT0rKq-44" value="" style="endArrow=classic;html=1;exitX=1;exitY=0.5;exitDx=0;exitDy=0;entryX=0;entryY=0.5;entryDx=0;entryDy=0;" parent="1" source="VUVvk97_Cy0lgHLT0rKq-32" target="VUVvk97_Cy0lgHLT0rKq-42" edge="1">
          <mxGeometry width="50" height="50" relative="1" as="geometry">
            <mxPoint x="400" y="297" as="sourcePoint" />
            <mxPoint x="480" y="347" as="targetPoint" />
          </mxGeometry>
        </mxCell>
        <mxCell id="VUVvk97_Cy0lgHLT0rKq-45" value="" style="endArrow=classic;html=1;entryX=0.431;entryY=0.033;entryDx=0;entryDy=0;entryPerimeter=0;" parent="1" source="VUVvk97_Cy0lgHLT0rKq-4" target="VUVvk97_Cy0lgHLT0rKq-43" edge="1">
          <mxGeometry width="50" height="50" relative="1" as="geometry">
            <mxPoint x="160" y="260" as="sourcePoint" />
            <mxPoint x="210" y="210" as="targetPoint" />
          </mxGeometry>
        </mxCell>
        <mxCell id="VUVvk97_Cy0lgHLT0rKq-47" value="" style="endArrow=classic;html=1;entryX=0;entryY=0.5;entryDx=0;entryDy=0;entryPerimeter=0;" parent="1" target="VUVvk97_Cy0lgHLT0rKq-31" edge="1">
          <mxGeometry width="50" height="50" relative="1" as="geometry">
            <mxPoint x="500" y="430" as="sourcePoint" />
            <mxPoint x="550" y="380" as="targetPoint" />
          </mxGeometry>
        </mxCell>
        <mxCell id="VUVvk97_Cy0lgHLT0rKq-48" value="Send to message queue" style="text;html=1;align=center;verticalAlign=middle;resizable=0;points=[];autosize=1;" parent="1" vertex="1">
          <mxGeometry x="326" y="400" width="150" height="20" as="geometry" />
        </mxCell>
        <mxCell id="VUVvk97_Cy0lgHLT0rKq-49" value="post" style="text;html=1;align=center;verticalAlign=middle;resizable=0;points=[];autosize=1;" parent="1" vertex="1">
          <mxGeometry x="149.5" y="260" width="40" height="20" as="geometry" />
        </mxCell>
        <mxCell id="VUVvk97_Cy0lgHLT0rKq-50" value="&lt;h1&gt;1&lt;/h1&gt;" style="text;html=1;align=center;verticalAlign=middle;resizable=0;points=[];autosize=1;" parent="1" vertex="1">
          <mxGeometry x="60" y="50" width="30" height="50" as="geometry" />
        </mxCell>
        <mxCell id="VUVvk97_Cy0lgHLT0rKq-55" value="&lt;h1&gt;2&lt;/h1&gt;" style="text;html=1;align=center;verticalAlign=middle;resizable=0;points=[];autosize=1;" parent="1" vertex="1">
          <mxGeometry x="296" y="71" width="30" height="50" as="geometry" />
        </mxCell>
        <mxCell id="VUVvk97_Cy0lgHLT0rKq-56" value="&lt;h1&gt;3&lt;/h1&gt;" style="text;html=1;align=center;verticalAlign=middle;resizable=0;points=[];autosize=1;" parent="1" vertex="1">
          <mxGeometry x="326" y="165" width="30" height="50" as="geometry" />
        </mxCell>
        <mxCell id="VUVvk97_Cy0lgHLT0rKq-58" value="&lt;h1&gt;4&lt;/h1&gt;" style="text;html=1;align=center;verticalAlign=middle;resizable=0;points=[];autosize=1;" parent="1" vertex="1">
          <mxGeometry x="119.5" y="260" width="30" height="50" as="geometry" />
        </mxCell>
        <mxCell id="VUVvk97_Cy0lgHLT0rKq-59" value="&lt;h1&gt;5&lt;/h1&gt;" style="text;html=1;align=center;verticalAlign=middle;resizable=0;points=[];autosize=1;" parent="1" vertex="1">
          <mxGeometry x="356" y="310" width="30" height="50" as="geometry" />
        </mxCell>
        <mxCell id="VUVvk97_Cy0lgHLT0rKq-62" value="read queue" style="text;html=1;align=center;verticalAlign=middle;resizable=0;points=[];autosize=1;" parent="1" vertex="1">
          <mxGeometry x="370" y="327" width="80" height="20" as="geometry" />
        </mxCell>
        <mxCell id="VUVvk97_Cy0lgHLT0rKq-63" value="&lt;h1&gt;6&lt;/h1&gt;" style="text;html=1;align=center;verticalAlign=middle;resizable=0;points=[];autosize=1;" parent="1" vertex="1">
          <mxGeometry x="310" y="395" width="30" height="50" as="geometry" />
        </mxCell>
      </root>
    </mxGraphModel>
  </diagram>
</mxfile>
